<svg width="512" height="512" viewBox="0 0 512 512" fill="none" xmlns="http://www.w3.org/2000/svg">
<mask id="path-1-outside-1_3222_214" maskUnits="userSpaceOnUse" x="132.576" y="326" width="250" height="101" fill="black">
<rect fill="white" x="132.576" y="326" width="250" height="101"/>
<path d="M145.264 420C141.68 420 139.888 418.208 139.888 414.624V338.592C139.888 335.008 141.68 333.216 145.264 333.216H192.368C194.032 333.216 195.334 333.707 196.272 334.688C197.254 335.627 197.744 336.928 197.744 338.592C197.744 342.176 195.952 343.968 192.368 343.968H150.64V370.848H176.368C179.952 370.848 181.744 372.64 181.744 376.224C181.744 379.808 179.952 381.6 176.368 381.6H150.64V414.624C150.64 418.208 148.848 420 145.264 420ZM226.452 420C222.868 420 221.076 418.208 221.076 414.624V338.592C221.076 335.008 222.868 333.216 226.452 333.216H256.404C264.212 333.216 270.185 335.307 274.324 339.488C278.505 343.627 280.596 349.6 280.596 357.408V361.248C280.596 369.056 278.505 375.051 274.324 379.232C270.185 383.371 264.212 385.44 256.404 385.44H231.828V414.624C231.828 418.208 230.036 420 226.452 420ZM231.828 374.688H256.404C261.268 374.688 264.724 373.664 266.772 371.616C268.82 369.568 269.844 366.112 269.844 361.248V357.408C269.844 352.587 268.82 349.152 266.772 347.104C264.724 345.013 261.268 343.968 256.404 343.968H231.828V374.688ZM331.334 420C324.038 420 318.342 418.528 314.246 415.584C310.193 412.64 307.654 408.096 306.63 401.952C306.46 400.075 306.844 398.667 307.782 397.728C308.721 396.789 310.086 396.32 311.878 396.32C313.67 396.32 314.972 396.747 315.782 397.6C316.636 398.453 317.212 399.776 317.51 401.568C318.15 404.512 319.516 406.539 321.606 407.648C323.74 408.715 326.982 409.248 331.334 409.248H349.766C355.27 409.248 359.004 408.267 360.966 406.304C362.972 404.299 363.974 400.587 363.974 395.168C363.974 389.664 362.95 385.909 360.902 383.904C358.854 381.856 355.142 380.832 349.766 380.832H333.894C325.83 380.832 319.836 378.869 315.91 374.944C312.028 370.976 310.086 364.96 310.086 356.896C310.086 348.875 312.006 342.923 315.846 339.04C319.729 335.157 325.702 333.216 333.766 333.216H348.998C355.782 333.216 361.094 334.603 364.934 337.376C368.817 340.149 371.27 344.395 372.294 350.112C372.55 351.947 372.209 353.355 371.27 354.336C370.332 355.275 368.924 355.744 367.046 355.744C365.34 355.744 364.06 355.296 363.206 354.4C362.353 353.504 361.798 352.203 361.542 350.496C360.86 347.979 359.558 346.272 357.638 345.376C355.718 344.437 352.838 343.968 348.998 343.968H333.766C328.646 343.968 325.212 344.885 323.462 346.72C321.713 348.512 320.838 351.904 320.838 356.896C320.838 361.931 321.734 365.387 323.526 367.264C325.318 369.141 328.774 370.08 333.894 370.08H349.766C358.172 370.08 364.422 372.128 368.518 376.224C372.657 380.32 374.726 386.635 374.726 395.168C374.726 403.659 372.678 409.931 368.582 413.984C364.486 417.995 358.214 420 349.766 420H331.334Z"/>
</mask>
<path d="M145.264 420C141.68 420 139.888 418.208 139.888 414.624V338.592C139.888 335.008 141.68 333.216 145.264 333.216H192.368C194.032 333.216 195.334 333.707 196.272 334.688C197.254 335.627 197.744 336.928 197.744 338.592C197.744 342.176 195.952 343.968 192.368 343.968H150.64V370.848H176.368C179.952 370.848 181.744 372.64 181.744 376.224C181.744 379.808 179.952 381.6 176.368 381.6H150.64V414.624C150.64 418.208 148.848 420 145.264 420ZM226.452 420C222.868 420 221.076 418.208 221.076 414.624V338.592C221.076 335.008 222.868 333.216 226.452 333.216H256.404C264.212 333.216 270.185 335.307 274.324 339.488C278.505 343.627 280.596 349.6 280.596 357.408V361.248C280.596 369.056 278.505 375.051 274.324 379.232C270.185 383.371 264.212 385.44 256.404 385.44H231.828V414.624C231.828 418.208 230.036 420 226.452 420ZM231.828 374.688H256.404C261.268 374.688 264.724 373.664 266.772 371.616C268.82 369.568 269.844 366.112 269.844 361.248V357.408C269.844 352.587 268.82 349.152 266.772 347.104C264.724 345.013 261.268 343.968 256.404 343.968H231.828V374.688ZM331.334 420C324.038 420 318.342 418.528 314.246 415.584C310.193 412.64 307.654 408.096 306.63 401.952C306.46 400.075 306.844 398.667 307.782 397.728C308.721 396.789 310.086 396.32 311.878 396.32C313.67 396.32 314.972 396.747 315.782 397.6C316.636 398.453 317.212 399.776 317.51 401.568C318.15 404.512 319.516 406.539 321.606 407.648C323.74 408.715 326.982 409.248 331.334 409.248H349.766C355.27 409.248 359.004 408.267 360.966 406.304C362.972 404.299 363.974 400.587 363.974 395.168C363.974 389.664 362.95 385.909 360.902 383.904C358.854 381.856 355.142 380.832 349.766 380.832H333.894C325.83 380.832 319.836 378.869 315.91 374.944C312.028 370.976 310.086 364.96 310.086 356.896C310.086 348.875 312.006 342.923 315.846 339.04C319.729 335.157 325.702 333.216 333.766 333.216H348.998C355.782 333.216 361.094 334.603 364.934 337.376C368.817 340.149 371.27 344.395 372.294 350.112C372.55 351.947 372.209 353.355 371.27 354.336C370.332 355.275 368.924 355.744 367.046 355.744C365.34 355.744 364.06 355.296 363.206 354.4C362.353 353.504 361.798 352.203 361.542 350.496C360.86 347.979 359.558 346.272 357.638 345.376C355.718 344.437 352.838 343.968 348.998 343.968H333.766C328.646 343.968 325.212 344.885 323.462 346.72C321.713 348.512 320.838 351.904 320.838 356.896C320.838 361.931 321.734 365.387 323.526 367.264C325.318 369.141 328.774 370.08 333.894 370.08H349.766C358.172 370.08 364.422 372.128 368.518 376.224C372.657 380.32 374.726 386.635 374.726 395.168C374.726 403.659 372.678 409.931 368.582 413.984C364.486 417.995 358.214 420 349.766 420H331.334Z"/>
<path d="M196.272 334.688L191.214 339.527L191.321 339.639L191.434 339.746L196.272 334.688ZM150.64 343.968V336.968H143.64V343.968H150.64ZM150.64 370.848H143.64V377.848H150.64V370.848ZM150.64 381.6V374.6H143.64V381.6H150.64ZM145.264 413C144.551 413 145.302 412.826 146.182 413.706C147.062 414.586 146.888 415.337 146.888 414.624H132.888C132.888 417.495 133.611 420.934 136.282 423.606C138.954 426.278 142.393 427 145.264 427V413ZM146.888 414.624V338.592H132.888V414.624H146.888ZM146.888 338.592C146.888 337.879 147.062 338.63 146.182 339.51C145.302 340.39 144.551 340.216 145.264 340.216V326.216C142.393 326.216 138.954 326.938 136.282 329.61C133.611 332.282 132.888 335.721 132.888 338.592H146.888ZM145.264 340.216H192.368V326.216H145.264V340.216ZM192.368 340.216C192.518 340.216 192.399 340.238 192.123 340.134C191.818 340.019 191.486 339.811 191.214 339.527L201.331 329.849C198.784 327.186 195.482 326.216 192.368 326.216V340.216ZM191.434 339.746C191.149 339.474 190.941 339.143 190.826 338.838C190.722 338.561 190.744 338.442 190.744 338.592H204.744C204.744 335.478 203.774 332.177 201.111 329.629L191.434 339.746ZM190.744 338.592C190.744 339.305 190.571 338.554 191.45 337.674C192.33 336.794 193.081 336.968 192.368 336.968V350.968C195.239 350.968 198.678 350.246 201.35 347.574C204.022 344.902 204.744 341.463 204.744 338.592H190.744ZM192.368 336.968H150.64V350.968H192.368V336.968ZM143.64 343.968V370.848H157.64V343.968H143.64ZM150.64 377.848H176.368V363.848H150.64V377.848ZM176.368 377.848C177.081 377.848 176.33 378.022 175.45 377.142C174.571 376.262 174.744 375.511 174.744 376.224H188.744C188.744 373.353 188.022 369.914 185.35 367.242C182.678 364.57 179.239 363.848 176.368 363.848V377.848ZM174.744 376.224C174.744 376.937 174.571 376.186 175.45 375.306C176.33 374.426 177.081 374.6 176.368 374.6V388.6C179.239 388.6 182.678 387.878 185.35 385.206C188.022 382.534 188.744 379.095 188.744 376.224H174.744ZM176.368 374.6H150.64V388.6H176.368V374.6ZM143.64 381.6V414.624H157.64V381.6H143.64ZM143.64 414.624C143.64 415.337 143.467 414.586 144.346 413.706C145.226 412.826 145.977 413 145.264 413V427C148.135 427 151.574 426.278 154.246 423.606C156.918 420.934 157.64 417.495 157.64 414.624H143.64ZM274.324 339.488L269.349 344.412L269.374 344.438L269.399 344.463L274.324 339.488ZM274.324 379.232L279.273 384.182L279.273 384.182L274.324 379.232ZM231.828 385.44V378.44H224.828V385.44H231.828ZM231.828 374.688H224.828V381.688H231.828V374.688ZM266.772 347.104L261.771 352.002L261.796 352.028L261.822 352.054L266.772 347.104ZM231.828 343.968V336.968H224.828V343.968H231.828ZM226.452 413C225.739 413 226.49 412.826 227.369 413.706C228.249 414.586 228.076 415.337 228.076 414.624H214.076C214.076 417.495 214.798 420.934 217.47 423.606C220.142 426.278 223.581 427 226.452 427V413ZM228.076 414.624V338.592H214.076V414.624H228.076ZM228.076 338.592C228.076 337.879 228.249 338.63 227.369 339.51C226.49 340.39 225.739 340.216 226.452 340.216V326.216C223.581 326.216 220.142 326.938 217.47 329.61C214.798 332.282 214.076 335.721 214.076 338.592H228.076ZM226.452 340.216H256.404V326.216H226.452V340.216ZM256.404 340.216C262.976 340.216 266.912 341.951 269.349 344.412L279.299 334.564C273.458 328.663 265.447 326.216 256.404 326.216V340.216ZM269.399 344.463C271.861 346.9 273.596 350.835 273.596 357.408H287.596C287.596 348.365 285.149 340.354 279.248 334.513L269.399 344.463ZM273.596 357.408V361.248H287.596V357.408H273.596ZM273.596 361.248C273.596 367.816 271.863 371.793 269.374 374.282L279.273 384.182C285.147 378.308 287.596 370.296 287.596 361.248H273.596ZM269.374 374.282C266.941 376.716 262.996 378.44 256.404 378.44V392.44C265.428 392.44 273.43 390.026 279.273 384.182L269.374 374.282ZM256.404 378.44H231.828V392.44H256.404V378.44ZM224.828 385.44V414.624H238.828V385.44H224.828ZM224.828 414.624C224.828 415.337 224.654 414.586 225.534 413.706C226.414 412.826 227.165 413 226.452 413V427C229.323 427 232.762 426.278 235.433 423.606C238.105 420.934 238.828 417.495 238.828 414.624H224.828ZM231.828 381.688H256.404V367.688H231.828V381.688ZM256.404 381.688C261.936 381.688 267.709 380.578 271.721 376.566L261.822 366.666C261.738 366.75 260.6 367.688 256.404 367.688V381.688ZM271.721 376.566C275.734 372.553 276.844 366.78 276.844 361.248H262.844C262.844 365.444 261.905 366.583 261.822 366.666L271.721 376.566ZM276.844 361.248V357.408H262.844V361.248H276.844ZM276.844 357.408C276.844 351.898 275.725 346.158 271.721 342.154L261.822 352.054C261.914 352.146 262.844 353.276 262.844 357.408H276.844ZM271.772 342.206C267.762 338.112 261.966 336.968 256.404 336.968V350.968C260.569 350.968 261.685 351.914 261.771 352.002L271.772 342.206ZM256.404 336.968H231.828V350.968H256.404V336.968ZM224.828 343.968V374.688H238.828V343.968H224.828ZM314.246 415.584L310.133 421.248L310.147 421.258L310.161 421.268L314.246 415.584ZM306.63 401.952L299.659 402.586L299.683 402.846L299.725 403.103L306.63 401.952ZM307.782 397.728L302.832 392.778L302.832 392.778L307.782 397.728ZM315.782 397.6L310.707 402.421L310.769 402.486L310.832 402.55L315.782 397.6ZM317.51 401.568L310.605 402.719L310.634 402.888L310.67 403.055L317.51 401.568ZM321.606 407.648L318.325 413.831L318.4 413.871L318.476 413.909L321.606 407.648ZM360.966 406.304L356.016 401.354L356.016 401.354L360.966 406.304ZM360.902 383.904L355.952 388.854L355.978 388.88L356.005 388.906L360.902 383.904ZM315.91 374.944L310.907 379.84L310.934 379.867L310.96 379.894L315.91 374.944ZM315.846 339.04L310.896 334.09L310.883 334.104L310.869 334.118L315.846 339.04ZM364.934 337.376L360.836 343.051L360.851 343.061L360.866 343.072L364.934 337.376ZM372.294 350.112L379.227 349.145L379.208 349.011L379.185 348.878L372.294 350.112ZM371.27 354.336L376.22 359.286L376.275 359.231L376.329 359.175L371.27 354.336ZM363.206 354.4L368.275 349.572L368.275 349.572L363.206 354.4ZM361.542 350.496L368.465 349.458L368.404 349.056L368.298 348.664L361.542 350.496ZM357.638 345.376L354.564 351.665L354.621 351.693L354.678 351.719L357.638 345.376ZM323.462 346.72L328.471 351.61L328.5 351.58L328.528 351.551L323.462 346.72ZM323.526 367.264L328.59 362.431L328.59 362.431L323.526 367.264ZM368.518 376.224L363.568 381.174L363.581 381.187L363.594 381.199L368.518 376.224ZM368.582 413.984L373.48 418.986L373.493 418.973L373.506 418.96L368.582 413.984ZM331.334 413C324.876 413 320.813 411.683 318.332 409.9L310.161 421.268C315.872 425.373 323.2 427 331.334 427V413ZM318.36 409.92C316.136 408.305 314.334 405.598 313.535 400.801L299.725 403.103C300.974 410.594 304.25 416.975 310.133 421.248L318.36 409.92ZM313.601 401.318C313.571 400.981 313.625 401.032 313.544 401.33C313.448 401.681 313.208 402.202 312.732 402.678L302.832 392.778C299.885 395.725 299.382 399.543 299.659 402.586L313.601 401.318ZM312.732 402.678C312.384 403.026 312.02 403.211 311.786 403.292C311.584 403.361 311.577 403.32 311.878 403.32V389.32C308.898 389.32 305.491 390.12 302.832 392.778L312.732 402.678ZM311.878 403.32C312.249 403.32 312.249 403.368 312.017 403.292C311.748 403.203 311.222 402.963 310.707 402.421L320.857 392.779C318.169 389.949 314.596 389.32 311.878 389.32V403.32ZM310.832 402.55C310.531 402.248 310.432 402.016 310.436 402.027C310.438 402.032 310.462 402.087 310.495 402.205C310.528 402.322 310.567 402.491 310.605 402.719L324.415 400.417C323.991 397.873 323.019 394.937 320.732 392.65L310.832 402.55ZM310.67 403.055C311.619 407.419 313.94 411.504 318.325 413.831L324.887 401.465C324.871 401.456 324.873 401.455 324.878 401.46C324.882 401.464 324.861 401.447 324.82 401.385C324.733 401.256 324.525 400.882 324.35 400.081L310.67 403.055ZM318.476 413.909C322.085 415.714 326.651 416.248 331.334 416.248V402.248C327.313 402.248 325.394 401.716 324.737 401.387L318.476 413.909ZM331.334 416.248H349.766V402.248H331.334V416.248ZM349.766 416.248C355.536 416.248 361.833 415.337 365.916 411.254L356.016 401.354C356.189 401.181 356.029 401.449 354.915 401.742C353.817 402.03 352.15 402.248 349.766 402.248V416.248ZM365.916 411.254C370.009 407.161 370.974 400.943 370.974 395.168H356.974C356.974 397.491 356.754 399.117 356.464 400.191C356.173 401.269 355.899 401.471 356.016 401.354L365.916 411.254ZM370.974 395.168C370.974 389.32 369.993 383.009 365.8 378.902L356.005 388.906C355.878 388.781 356.155 388.975 356.453 390.066C356.749 391.152 356.974 392.803 356.974 395.168H370.974ZM365.852 378.954C361.742 374.845 355.568 373.832 349.766 373.832V387.832C352.053 387.832 353.657 388.055 354.721 388.348C355.781 388.64 356.022 388.923 355.952 388.854L365.852 378.954ZM349.766 373.832H333.894V387.832H349.766V373.832ZM333.894 373.832C326.846 373.832 322.978 372.113 320.86 369.994L310.96 379.894C316.693 385.626 324.815 387.832 333.894 387.832V373.832ZM320.913 370.048C318.791 367.879 317.086 363.956 317.086 356.896H303.086C303.086 365.964 305.264 374.073 310.907 379.84L320.913 370.048ZM317.086 356.896C317.086 349.858 318.779 346.029 320.823 343.962L310.869 334.118C305.233 339.816 303.086 347.891 303.086 356.896H317.086ZM320.796 343.99C322.859 341.927 326.692 340.216 333.766 340.216V326.216C324.713 326.216 316.599 328.388 310.896 334.09L320.796 343.99ZM333.766 340.216H348.998V326.216H333.766V340.216ZM348.998 340.216C354.923 340.216 358.604 341.439 360.836 343.051L369.033 331.701C363.584 327.766 356.641 326.216 348.998 326.216V340.216ZM360.866 343.072C362.95 344.561 364.628 347.012 365.404 351.346L379.185 348.878C377.913 341.777 374.683 335.737 369.003 331.68L360.866 343.072ZM365.361 351.079C365.4 351.357 365.341 351.249 365.427 350.895C365.527 350.484 365.772 349.957 366.212 349.497L376.329 359.175C379.239 356.132 379.664 352.277 379.227 349.145L365.361 351.079ZM366.32 349.386C366.706 349 367.093 348.819 367.297 348.751C367.467 348.695 367.422 348.744 367.046 348.744V362.744C370.003 362.744 373.505 362 376.22 359.286L366.32 349.386ZM367.046 348.744C366.786 348.744 366.852 348.708 367.119 348.801C367.423 348.908 367.865 349.142 368.275 349.572L358.137 359.228C360.751 361.972 364.171 362.744 367.046 362.744V348.744ZM368.275 349.572C368.386 349.689 368.464 349.795 368.516 349.875C368.567 349.955 368.588 350.004 368.59 350.007C368.591 350.01 368.574 349.971 368.549 349.878C368.524 349.786 368.493 349.648 368.465 349.458L354.62 351.534C355.007 354.12 355.969 356.951 358.137 359.228L368.275 349.572ZM368.298 348.664C367.212 344.659 364.811 340.998 360.598 339.033L354.678 351.719C354.656 351.709 354.612 351.684 354.563 351.645C354.54 351.627 354.522 351.609 354.508 351.595C354.494 351.581 354.488 351.572 354.488 351.572C354.488 351.573 354.497 351.584 354.512 351.61C354.528 351.636 354.55 351.677 354.578 351.736C354.634 351.856 354.71 352.046 354.786 352.328L368.298 348.664ZM360.713 339.087C357.35 337.443 353.184 336.968 348.998 336.968V350.968C352.492 350.968 354.087 351.431 354.564 351.665L360.713 339.087ZM348.998 336.968H333.766V350.968H348.998V336.968ZM333.766 336.968C328.429 336.968 322.301 337.794 318.396 341.889L328.528 351.551C328.226 351.867 328.205 351.673 329.156 351.419C330.089 351.17 331.573 350.968 333.766 350.968V336.968ZM318.453 341.83C314.64 345.736 313.838 351.649 313.838 356.896H327.838C327.838 354.762 328.03 353.296 328.272 352.356C328.52 351.395 328.724 351.35 328.471 351.61L318.453 341.83ZM313.838 356.896C313.838 362.25 314.686 368.141 318.463 372.097L328.59 362.431C328.769 362.619 328.542 362.494 328.286 361.507C328.034 360.534 327.838 359.042 327.838 356.896H313.838ZM318.463 372.097C322.389 376.211 328.498 377.08 333.894 377.08V363.08C331.712 363.08 330.232 362.875 329.297 362.621C328.352 362.364 328.331 362.16 328.59 362.431L318.463 372.097ZM333.894 377.08H349.766V363.08H333.894V377.08ZM349.766 377.08C357.153 377.08 361.278 378.884 363.568 381.174L373.468 371.274C367.566 365.372 359.19 363.08 349.766 363.08V377.08ZM363.594 381.199C365.893 383.475 367.726 387.635 367.726 395.168H381.726C381.726 385.635 379.421 377.165 373.442 371.249L363.594 381.199ZM367.726 395.168C367.726 402.672 365.908 406.782 363.658 409.008L373.506 418.96C379.448 413.079 381.726 404.646 381.726 395.168H367.726ZM363.685 408.982C361.405 411.215 357.244 413 349.766 413V427C359.185 427 367.568 424.774 373.48 418.986L363.685 408.982ZM349.766 413H331.334V427H349.766V413Z" mask="url(#path-1-outside-1_3222_214)"/>
<path fill-rule="evenodd" clip-rule="evenodd" d="M483.221 246.883C489.115 273.861 466.191 296.5 438.576 296.5L73.5764 296.5C45.9622 296.5 23.038 273.861 28.9316 246.883C38.3566 203.74 59.9618 163.81 91.6741 132.098C135.276 88.4955 194.414 64 256.076 64C317.739 64 376.877 88.4955 420.479 132.098C452.191 163.81 473.796 203.74 483.221 246.883ZM457.67 250.931C458.034 256.483 453.489 261 447.925 261C442.361 261 437.888 256.482 437.484 250.933C434.69 212.597 416.017 176.318 384.734 148.994C350.724 119.289 304.597 102.6 256.5 102.6C208.403 102.6 162.276 119.289 128.266 148.994C96.9833 176.318 78.3097 212.597 75.5163 250.933C75.112 256.482 70.6393 261 65.075 261C59.5107 261 54.9657 256.483 55.3297 250.931C58.1493 207.924 78.9556 167.174 114.018 136.549C151.807 103.543 203.059 85 256.5 85C309.941 85 361.193 103.543 398.982 136.549C434.044 167.174 454.851 207.924 457.67 250.931ZM257.982 222.044C257.492 222.015 256.998 222 256.5 222C242.969 222 232 232.969 232 246.5C232 260.031 242.969 271 256.5 271C270.031 271 281 260.031 281 246.5C281 243.175 280.338 240.004 279.137 237.113L324.81 149.818L257.982 222.044Z" />
</svg>
